HIERARCHY
ROOT Pelvis
{
	OFFSET 0.000000 0.000000 0.000000
	CHANNELS 6 Xposition Yposition Zposition Zrotation Yrotation Xrotation 
	JOINT Left_hip
	{
		OFFSET 0.068973 -0.091024 -0.007589
		CHANNELS 3 Zrotation Yrotation Xrotation
		JOINT Left_knee
		{
			OFFSET 0.036482 -0.391037 -0.003979
			CHANNELS 3 Zrotation Yrotation Xrotation
			JOINT Left_ankle
			{
				OFFSET -0.012239 -0.415469 -0.043440
				CHANNELS 3 Zrotation Yrotation Xrotation
				JOINT Left_foot
				{
					OFFSET 0.023806 -0.058558 0.118702
					CHANNELS 3 Zrotation Yrotation Xrotation
					End Site
					{
						OFFSET 0.000000 0.000000 0.000000
					}
				}
			}
		}
	}
	JOINT Right_hip
	{
		OFFSET -0.066552 -0.090468 -0.003847
		CHANNELS 3 Zrotation Yrotation Xrotation
		JOINT Right_knee
		{
			OFFSET -0.042435 -0.398340 -0.006400
			CHANNELS 3 Zrotation Yrotation Xrotation
			JOINT Right_ankle
			{
				OFFSET 0.014931 -0.415421 -0.041327
				CHANNELS 3 Zrotation Yrotation Xrotation
				JOINT Right_foot
				{
					OFFSET -0.021472 -0.049410 0.121889
					CHANNELS 3 Zrotation Yrotation Xrotation
					End Site
					{
						OFFSET 0.000000 0.000000 0.000000
					}
				}
			}
		}
	}
	JOINT Spine1
	{
		OFFSET -0.002904 0.105700 -0.022855
		CHANNELS 3 Zrotation Yrotation Xrotation
		JOINT Spine2
		{
			OFFSET 0.004179 0.132554 -0.002501
			CHANNELS 3 Zrotation Yrotation Xrotation
			JOINT Spine3
			{
				OFFSET 0.001987 0.049603 0.025988
				CHANNELS 3 Zrotation Yrotation Xrotation
				JOINT Neck
				{
					OFFSET -0.003935 0.211336 -0.045638
					CHANNELS 3 Zrotation Yrotation Xrotation
					JOINT Head
					{
						OFFSET 0.003906 0.065991 0.051018
						CHANNELS 3 Zrotation Yrotation Xrotation
						End Site
						{
							OFFSET 0.000000 0.000000 0.000000
						}
					}
				}
				JOINT Left_collar
				{
					OFFSET 0.072882 0.117751 -0.036270
					CHANNELS 3 Zrotation Yrotation Xrotation
					JOINT Left_shoulder
					{
						OFFSET 0.082118 0.032630 -0.005771
						CHANNELS 3 Zrotation Yrotation Xrotation
						JOINT Left_elbow
						{
							OFFSET 0.263305 -0.015144 -0.028095
							CHANNELS 3 Zrotation Yrotation Xrotation
							JOINT Left_wrist
							{
								OFFSET 0.250741 0.010115 -0.000759
								CHANNELS 3 Zrotation Yrotation Xrotation
								JOINT Left_palm
								{
									OFFSET 0.080683 -0.009989 -0.013613
									CHANNELS 3 Zrotation Yrotation Xrotation
									End Site
									{
										OFFSET 0.000000 0.000000 0.000000
									}
								}
							}
						}
					}
				}
				JOINT Right_collar
				{
					OFFSET -0.074811 0.116132 -0.040385
					CHANNELS 3 Zrotation Yrotation Xrotation
					JOINT Right_shoulder
					{
						OFFSET -0.085089 0.032943 -0.007484
						CHANNELS 3 Zrotation Yrotation Xrotation
						JOINT Right_elbow
						{
							OFFSET -0.254763 -0.014219 -0.020321
							CHANNELS 3 Zrotation Yrotation Xrotation
							JOINT Right_wrist
							{
								OFFSET -0.256597 0.009233 -0.005063
								CHANNELS 3 Zrotation Yrotation Xrotation
								JOINT Right_palm
								{
									OFFSET -0.080528 -0.007219 -0.010379
									CHANNELS 3 Zrotation Yrotation Xrotation
									End Site
									{
										OFFSET 0.000000 0.000000 0.000000
									}
								}
							}
						}
					}
				}
			}
		}
	}
}
MOTION
Frames: 8
Frame Time: 0.100000
0.000000 0.000000 0.000000 121.736527 73.537639 -73.234646 13.793483 7.081896 25.026697 -0.578681 -10.172286 -2.028732 -8.487931 10.932999 -3.506308 9.197113 4.629574 -4.951328 -6.072514 -0.750463 5.882632 2.273137 7.496552 3.087389 8.949739 -3.748476 4.423062 -6.340641 1.088822 1.851817 2.180721 -3.468818 5.165083 3.194867 -6.337065 12.813044 0.672929 -3.786214 0.449255 3.146484 -13.311367 14.740430 4.121916 -16.548367 10.827896 -23.291436 -9.531656 9.645926 -46.511520 -10.812182 11.591021 3.390958 -34.129308 16.186854 -0.369894 -3.272358 8.732631 -11.271337 -4.017698 -15.683321 22.535931 10.513581 5.284436 47.158132 3.355827 8.674418 -8.773519 24.849274 0.415685 0.475610 1.162125 1.932874 11.962557 7.691798 -9.196060 
0.031924 0.011395 -0.043413 138.004344 69.082661 -57.053539 11.808336 7.279065 26.730713 -2.474017 -7.656522 -7.362582 -5.592847 12.121505 -4.515252 7.255320 5.302579 -2.278777 -7.031398 0.204022 3.016913 1.813444 8.305401 -1.398300 13.417002 -3.253910 11.214534 -9.745494 3.269246 0.387726 1.140253 -2.963840 5.993658 2.790775 -5.553540 14.310779 0.464283 -3.146314 0.249251 2.482033 -12.012526 13.683328 4.593102 -16.360476 8.649408 -23.088925 -10.607085 9.554197 -44.118467 -10.828203 11.312180 3.287085 -36.864228 14.649074 0.786912 -3.308530 10.547180 -13.487985 -5.647359 -17.237557 23.779494 11.410449 6.253411 48.049552 3.304544 9.676102 -8.532271 26.661903 -0.639460 -0.335195 1.186674 2.804168 15.033161 9.346848 -11.681050 
0.056036 0.014735 -0.071214 143.593434 65.525499 -50.804932 10.965335 8.040946 26.292435 -3.213571 -5.480807 -10.912896 -4.920208 12.289893 -3.075804 6.819181 5.004283 -1.929043 -6.392629 -2.279681 -0.376615 2.420953 0.796180 0.778316 12.272980 -7.322876 11.368506 -10.265961 4.566125 0.271752 0.339076 -2.839203 6.605208 2.053783 -4.850000 13.028582 0.306541 -3.120830 0.125088 1.405636 -9.545189 13.773269 3.666877 -14.178540 9.266611 -23.099357 -9.788637 9.657952 -43.113155 -10.032822 10.364959 1.358894 -33.071679 16.083498 -0.486897 -2.993035 12.702330 -11.936479 -5.726290 -17.761614 24.647831 10.521655 6.717328 49.983733 2.375422 10.978893 -5.653720 24.646381 3.652902 2.097256 1.218906 5.226233 13.372782 8.920594 -10.535001 
0.073502 0.014323 -0.084236 144.588090 64.330471 -51.148358 9.854418 7.827374 24.486618 -2.507282 -5.554863 -7.479617 -3.431925 13.483686 -3.463173 5.616543 5.607376 -2.374613 -3.919657 -0.187578 0.836451 1.212187 5.519792 7.326874 10.089041 -5.360550 8.501595 -7.429530 3.005218 -1.116462 0.019959 -2.565732 7.784737 1.147414 -4.552990 13.471148 -0.290837 -2.856559 0.468180 0.103222 -8.455742 13.883480 3.888886 -12.451468 5.885356 -23.153916 -10.177718 9.708178 -43.668353 -8.965401 9.017609 1.585657 -25.922213 14.315627 -1.484633 -1.214682 12.842321 -10.823804 -4.923194 -17.362686 23.616152 10.767646 7.357239 53.301159 0.523477 12.535233 -3.308570 23.845818 8.635044 4.446501 0.264754 4.178682 12.302382 8.500537 -10.149296 
0.076238 0.015608 -0.088545 143.837333 65.104426 -53.211350 9.175091 7.570671 25.063112 -2.142379 -6.712986 -6.528830 -2.774988 13.770762 -3.662495 4.905491 6.698962 -3.289246 -3.277920 0.319164 4.662671 0.499588 7.993642 7.962210 8.186907 -5.057827 4.354669 -5.731966 2.078386 -1.744797 0.251134 -1.954757 7.374885 -0.162599 -3.845251 13.801713 -1.125483 -2.369308 0.967114 -0.557574 -8.745129 15.061954 4.221348 -11.590098 4.282986 -23.981464 -8.783954 9.586642 -44.749589 -7.593448 7.642276 2.014983 -20.077663 12.289966 -0.796011 -0.141784 12.998656 -9.810675 -4.206375 -16.589003 22.781830 9.824361 7.949900 55.626944 -2.429918 13.768584 -1.044181 25.869140 13.348625 4.131221 0.404896 4.067533 11.376205 8.220214 -9.639888 
0.070974 0.015771 -0.085876 141.880409 66.718636 -55.561459 9.213964 7.273651 26.117021 -2.278902 -7.878805 -7.380724 -3.076878 13.700002 -3.096777 5.332445 6.611278 -4.092958 -3.537468 0.305215 6.453853 0.475674 9.933614 7.993557 7.872443 -3.910853 1.925437 -5.528073 1.431866 -2.300197 0.433279 -1.528263 5.807741 -0.848193 -2.943278 13.852799 -1.728259 -1.740150 1.362484 -0.792218 -8.809575 16.187753 3.950793 -11.244298 4.511923 -23.962022 -5.879131 9.159114 -46.706891 -5.263669 7.853883 1.618176 -18.794287 12.901503 -0.491473 0.248985 11.806305 -9.688957 -3.863962 -16.081771 22.161435 8.310076 8.127367 56.855832 -3.150391 14.451084 0.649908 26.023588 17.159356 4.176043 0.189906 5.724722 10.965988 8.055251 -9.563450 
0.058889 0.014088 -0.076154 134.912913 69.772681 -63.373761 9.693723 6.558014 27.364683 -1.907961 -9.857832 -6.815503 -4.050595 13.217839 -3.487333 6.034027 5.617278 -4.190261 -4.684248 -1.632534 9.926043 0.876898 7.563541 7.199037 7.348510 -4.892268 0.950603 -4.877789 0.711652 -2.063620 0.698374 -0.784461 4.593443 -0.982917 -2.706601 13.667069 -1.800765 -1.211118 1.538769 -1.032112 -10.816903 17.933803 4.075092 -13.133650 5.906856 -23.380082 -4.685877 9.400020 -48.097418 -3.294934 8.787012 -0.286392 -17.814900 17.723100 -1.469050 -0.485309 12.567803 -8.245324 -3.129761 -15.122900 21.715456 8.844909 8.277554 55.888494 -2.402183 15.160327 3.834102 24.540072 25.739680 5.408837 0.066620 12.511298 8.661855 7.635094 -8.328790 
0.040291 0.009805 -0.059162 123.043631 72.712171 -76.024027 10.766916 5.444027 28.562748 -1.268309 -12.028496 -5.986200 -5.396564 12.644686 -3.658587 6.827014 4.445325 -3.986412 -5.501624 -3.924193 15.533923 1.526168 5.716388 3.879104 6.203938 -5.332094 -0.117322 -3.276021 0.106252 -0.772500 0.917040 0.494734 2.235336 -0.660701 -2.734318 13.597072 -1.667516 -0.496615 1.654665 -0.796891 -14.135590 21.205892 4.215882 -17.044584 9.541868 -22.665193 -4.295638 9.000965 -48.536655 -3.228159 9.288010 -1.162308 -15.384504 19.963049 -3.241152 -0.784063 12.767644 -6.719861 -2.266347 -13.465040 21.489034 10.377781 8.125262 53.558487 0.137825 15.606223 5.863346 21.764109 32.830410 7.245366 -0.543207 18.530283 6.242974 7.160664 -6.571506 
